# xmcd
#
# Track frame offsets:
#	150
#	12672
#	26186
#	39039
#	52710
#	67705
#	81411
#	92940
#	106959
#	120299
#	137854
#	152953
#	168714
#	180452
#	198198
#	211625
#	224147
#	240500
#	256035
#	270037
#	285763
#	302586
#	318834
#	336911
#
# Disc length: 4702 seconds
#
# Revision: 0
# Processed by: cddbd v1.5.2PL0 Copyright (c) Steve Scherf et al.
# Submitted via: EZCDAudioConverter 4.0.5.1
#
DISCID=3b125c18
DTITLE=Vários - Bailão Sertanejo 001
DYEAR=2005
DGENRE=Sertanejo
TTITLE0=Rionegro and Solimões - Na Sola da Bota
TTITLE1=Teodoro and Sampaio - Mulher Chorona
TTITLE2=Bruno and Marrone - Pra Lá Que Eu Vou
TTITLE3=Cezar and Paulinho - Virá O Zoio
TTITLE4=Leonardo - Escorpião
TTITLE5=Teodoro and Sampaio - Que Eu to Fazendo Aqui
TTITLE6=Matogrosso and Mathias - Só Fazendo Amor, Que Ainda Presto
TTITLE7=Gino and Geno - O Telefone Tocou
TTITLE8=Gilberto and Gilmar - Tá Nervoso, Vai Pescar
TTITLE9=Gilberto and Gilmar - Tá Ruim, Mas Tá Bom
TTITLE10=Daniel - Estourou O Cano
TTITLE11=Grupo Tradição - Barquinho
TTITLE12=Edson and Hudson - Zoião (Ao Vivo)
TTITLE13=Zezé Di Camargo and Luciano - Galera Felicidade
TTITLE14=André and Adriano - Eu Tô Facim Facim
TTITLE15=Teodoro and Sampaio - É Mentira Dela
TTITLE16=Bruno and Marlon - Ele Não Fuma, Não Bebe E Não Foge
TTITLE17=Edson and Hudson Feat. Rionegro and Solimões - O Chão Vai Tremer
TTITLE18=Gino and Geno - Cara de Boi
TTITLE19=Chitãozinho and Xororó - Bailão de Peão
TTITLE20=Rionegro and Solimões - Saudade Aperta
TTITLE21=Cezar and Paulinho Feat. Daniel - Nois É Cowboy
TTITLE22=Leandro and Leonardo - Festa de Rodeio
TTITLE23=Gino and Geno - O Telefone Tocou (Remix)
EXTD=
EXTT0=
EXTT1=
EXTT2=
EXTT3=
EXTT4=
EXTT5=
EXTT6=
EXTT7=
EXTT8=
EXTT9=
EXTT10=
EXTT11=
EXTT12=
EXTT13=
EXTT14=
EXTT15=
EXTT16=
EXTT17=
EXTT18=
EXTT19=
EXTT20=
EXTT21=
EXTT22=
EXTT23=
PLAYORDER=
